{"asset":{"version":"2.0","generator":"Blockbench 4.9.4 glTF exporter"},"scenes":[{"nodes":[1],"name":"blockbench_export"}],"scene":0,"nodes":[{"name":"bone"},{"translation":[-0.009374999999999998,0.21562500000000007,0.009375],"name":"bone","mesh":0,"children":[0],"skin":0}],"bufferViews":[{"buffer":0,"byteOffset":0,"byteLength":8064,"target":34962,"byteStride":12},{"buffer":0,"byteOffset":8064,"byteLength":8064,"target":34962,"byteStride":12},{"buffer":0,"byteOffset":16128,"byteLength":5376,"target":34962,"byteStride":8},{"buffer":0,"byteOffset":21504,"byteLength":5376,"target":34962,"byteStride":8},{"buffer":0,"byteOffset":26880,"byteLength":10752,"target":34962,"byteStride":16},{"buffer":0,"byteOffset":37632,"byteLength":2016,"target":34963},{"buffer":0,"byteOffset":39648,"byteLength":64}],"buffers":[{"byteLength":39712,"uri":"data:application/octet-stream;base64,"}],"accessors":[{"bufferView":0,"componentType":5126,"count":672,"max":[0.07187499850988388,0.19062499701976776,0.19687499105930328],"min":[-0.00937500037252903,-0.21562500298023224,-0.21562500298023224],"type":"VEC3"},{"bufferView":1,"componentType":5126,"count":672,"max":[1,1,1],"min":[-1,-1,-1],"type":"VEC3"},{"bufferView":2,"componentType":5126,"count":672,"max":[0.18125000596046448,0.28125],"min":[0,0],"type":"VEC2"},{"bufferView":3,"componentType":5123,"count":672,"max":[0,0,0,0],"min":[0,0,0,0],"type":"VEC4"},{"bufferView":4,"componentType":5126,"count":672,"max":[0,1,0,0],"min":[0,1,0,0],"type":"VEC4"},{"bufferView":5,"componentType":5123,"count":1008,"max":[671],"min":[0],"type":"SCALAR"},{"bufferView":6,"componentType":5126,"count":1,"max":[1,0,0,0,0,1,0,0,0,0,1,0,0,0,0,1],"min":[1,0,0,0,0,1,0,0,0,0,1,0,0,0,0,1],"type":"MAT4"}],"materials":[{"pbrMetallicRoughness":{"metallicFactor":0,"roughnessFactor":1},"alphaMode":"MASK","alphaCutoff":0.05,"doubleSided":true}],"meshes":[{"primitives":[{"mode":4,"attributes":{"POSITION":0,"NORMAL":1,"TEXCOORD_0":2,"JOINTS_0":3,"WEIGHTS_0":4},"indices":5,"material":0}]}],"skins":[{"inverseBindMatrices":6,"joints":[0],"skeleton":0}]}